<?xml version="1.0" standalone="no"?>
<!DOCTYPE svg PUBLIC "-//W3C//DTD SVG 20010904//EN"
 "http://www.w3.org/TR/2001/REC-SVG-20010904/DTD/svg10.dtd">
<svg version="1.0" xmlns="http://www.w3.org/2000/svg"
 width="456.000000pt" height="375.000000pt" viewBox="0 0 456.000000 375.000000"
 preserveAspectRatio="xMidYMid meet">

<g transform="translate(0.000000,375.000000) scale(0.100000,-0.100000)"
fill="#000000" stroke="none">
<path d="M2273 3483 c-20 -28 -335 -595 -433 -778 -99 -186 -292 -539 -405
-740 -191 -340 -436 -779 -570 -1020 -70 -126 -138 -246 -151 -266 -21 -35
-22 -38 -6 -52 9 -8 134 -90 276 -181 225 -143 262 -164 280 -154 52 28 711
537 831 643 71 62 418 345 575 469 47 36 86 62 88 56 6 -17 42 9 42 30 0 15 5
18 27 14 21 -4 36 4 77 44 28 27 112 100 186 163 74 62 191 163 260 224 69 61
199 176 290 255 254 222 430 382 430 391 0 28 -47 2 -274 -148 -357 -235 -638
-413 -654 -413 -4 0 -18 20 -30 45 -24 50 -321 586 -462 835 -48 85 -143 252
-210 370 -67 118 -128 221 -135 228 -10 11 -16 9 -32 -15z m100 -1165 c47 -84
126 -220 175 -303 144 -245 165 -285 150 -289 -7 -3 -158 -47 -336 -99 l-322
-95 -117 -104 c-64 -56 -189 -171 -277 -255 -88 -83 -162 -150 -164 -148 -6 5
243 466 488 900 61 110 155 278 207 373 53 94 99 172 102 172 4 0 46 -69 94
-152z"/>
<path d="M3199 1563 c-74 -58 -150 -120 -169 -137 -19 -17 -48 -41 -64 -52
l-29 -21 73 -134 c40 -74 106 -189 146 -256 40 -68 71 -123 68 -123 -2 0 -46
29 -97 64 -126 87 -476 306 -488 306 -6 0 -73 -50 -150 -111 -115 -92 -138
-114 -127 -125 13 -13 943 -632 1010 -673 l37 -22 63 42 c35 23 151 105 260
181 l196 138 -58 107 c-212 395 -515 923 -529 923 -5 0 -69 -48 -142 -107z"/>
</g>
</svg>
